<svg xmlns:osb="http://www.openswatchbook.org/uri/2009/osb" xmlns="http://www.w3.org/2000/svg" width="400" height="400"><defs><linearGradient osb:paint="solid"><stop offset="0" stop-color="#fff"/></linearGradient></defs><path d="M189.95 97.387a86.231 86.231 0 1 1-172.462 0 86.231 86.231 0 1 1 172.462 0z" transform="matrix(2.271 0 0 2.271 -35.585 -21.203)" fill-rule="evenodd" stroke="#fff" stroke-width="1.761"/><path d="M339.04 713.917c6.611-.208 8.162-.469 10.083-.704 10.354-1.262 16.83-11.568 22.134-18.153-2.556 11.644-3.381 15.454-4.252 23.997 1.725 2.102 8.666 8.109 13.46 11.332-10.746-2.038-20.217-3.142-29.142-2.124" color="#000" fill="#fff" stroke="#fff" stroke-width="4" stroke-linejoin="round" overflow="visible" enable-background="accumulate" transform="translate(0 -652.362)"/><path d="M99.691 859.061c.466 10.444 1.595 13.789 4.184 18.926 1.674 3.322 4.052 6.704 7.375 8.375 4.482 2.254 9.15 1.254 15 1.25 2.226-.001 4.363-1.473 4.218-4.318-.144-2.845-3.892-5.115-7.311-4.897-5.453.348-9.053 2.225-14.734-2.96-4.479-4.088-6.472-10.221-8.732-16.377zm-33.878 106.976c3.465-21.686 6.313-29.482 9.409-32.845 1.57-1.705-9.62-8.31-12.914-17.73-4.376-12.514 1.095-31.134 5.544-39.222 7.37-13.4 16.08-13.4 16.08-21.441 0-8.04-16.75-12.06-19.43-40.201-2.68-28.141 9.38-44.891 24.121-59.631 14.74-14.74 36.719-23.546 47.298-23.369 10.579.176 31.06 7.562 43.039 18.401 1.815 1.642 2.263 3.724 3.57 6.431 2.104 1.796 7.467 2.247 11.513 1.509 4.645-.848 10.812-.423 13.669 2.213 1.375 1.269 1.625 4.641.319 6.18-.807.951-1.867 3.616-1.867 3.616s.209 4.386.606 6.547c.586 3.196 2.823-1.95 5.366 4.823 1.365 3.636 2.612 9.556 2.575 14.809-.034 4.749.068 6.815.068 6.815s.756 2.708 3.158 5.486c2.814 3.254 3.313 3.44 10.495 5.325 2.384.626 1.64 4.251.286 7.463 0 0 .634 4.288 1.761 5.63 2.473 2.943 5.255 1.51 5.101 8.804-2.793 14.778-19.368 13.916-25.014 17.14-8.121 5.126-4.178 6.777-6.188 15.487s-5.872 11.984.158 19.354c6.03 7.37 21.862 6.973 32.582 7.643 10.72.67 24.493 2.062 35.089 7.097 15.977 7.592 21.441 31.491 21.441 31.491s4.69-12.73 8.04-25.461c3.35-12.73-5.36-18.09-2.68-36.181 2.68-18.09 6.763-26.988 6.763-34.358 0-7.37-.642-18.993 2.038-19.663.986-.247.647-2.529.457-3.971-.327-2.478.123-4.989.123-4.989l-4.69-18.76c-2.5-4.87-6.765-10.192-12.807-12.577l-5.523-17.966s-17.851 13.123-33.262 19.823c-15.41 6.7-10.05 2.01-12.06-2.68-2.01-4.69 18.09-42.881 40.201-52.931 22.111-10.05 65.662-6.03 71.022-8.71 5.36-2.68 11.58-5.656 18.09-16.415-2.607 8.923-4.69 21.106-4.69 21.106s4.262 2.832 12.06 8.71c-7.564-2.142-17.42-4.02-28.141-2.68-10.72 1.34-44.221 20.771-44.221 20.771l8.787 25.576s-7.04 6.658-3.896 16.367l5.456 16.846c7.994 2.481 6.804 11.791 8.685 13.896 5.646-.026 2.057-1.472 8.708-1.445 4.738.388 5.397 3.358 10.452 5.142 3.797 1.34 6.556 1.677 11.167 8.264 6.253 8.934 2.457 3.573 7.594 9.38 4.527 5.118-.366 3.06 3.797 7.817 1.563 1.787 4.243 3.35 4.243 8.71l4.02 12.06c0 5.36-5.36 4.69-8.04 12.73-2.68 8.04-10.72 12.06-13.4 20.771-2.68 8.71-6.7 61.642-6.7 61.642-1.219.985-276.803 1.973-279.426 1.354z" color="#000" fill="#fff" stroke="#000" stroke-width="2" stroke-linejoin="round" overflow="visible" enable-background="accumulate" transform="translate(0 -652.362)"/><path d="M292.071 756.65l2.65 8.935c.09.305-.072.626-.365.721l-1.238.399c-.293.094-.603-.075-.692-.38l-2.479-8.502c-.089-.305.12-.529.365-.721l1.067-.831c.245-.191.601.075.692.38zm4.411-3.385l2.65 8.935c.09.305-.072.626-.365.721l-1.238.399c-.293.094-.601-.075-.692-.38l-2.454-8.477c-.09-.305.072-.626.365-.721l1.043-.857c.241-.198.601.075.692.38zm4.419-2.981l2.65 8.935c.09.305-.072.626-.365.721l-1.238.399c-.293.094-.601-.075-.692-.38l-2.454-8.782c-.086-.306.072-.626.365-.721l1.043-.551c.273-.144.601.075.692.38z" stroke="#000" transform="translate(0 -652.362)"/></svg>