<?xml version="1.0" encoding="UTF-8" standalone="no"?>
<!-- Created with Inkscape (http://www.inkscape.org/) -->

<svg
   xmlns:osb="http://www.openswatchbook.org/uri/2009/osb"
   xmlns:dc="http://purl.org/dc/elements/1.1/"
   xmlns:cc="http://creativecommons.org/ns#"
   xmlns:rdf="http://www.w3.org/1999/02/22-rdf-syntax-ns#"
   xmlns:svg="http://www.w3.org/2000/svg"
   xmlns="http://www.w3.org/2000/svg"
   xmlns:sodipodi="http://sodipodi.sourceforge.net/DTD/sodipodi-0.dtd"
   xmlns:inkscape="http://www.inkscape.org/namespaces/inkscape"
   width="400"
   height="400"
   id="svg2"
   version="1.1"
   inkscape:version="0.48.4 r9939"
   sodipodi:docname="fish_silhouette.svg"
   inkscape:export-filename="/home/holly/Documents/lowfodnocod.kiwi/images/fish_silhouette.png"
   inkscape:export-xdpi="90"
   inkscape:export-ydpi="90">
  <defs
     id="defs4">
    <linearGradient
       id="linearGradient3942"
       osb:paint="solid">
      <stop
         style="stop-color:#ffffff;stop-opacity:1;"
         offset="0"
         id="stop3944" />
    </linearGradient>
  </defs>
  <sodipodi:namedview
     id="base"
     pagecolor="#ffffff"
     bordercolor="#666666"
     borderopacity="1.0"
     inkscape:pageopacity="0.0"
     inkscape:pageshadow="2"
     inkscape:zoom="1.4925"
     inkscape:cx="200"
     inkscape:cy="200"
     inkscape:document-units="px"
     inkscape:current-layer="layer1"
     showgrid="false"
     showguides="true"
     inkscape:guide-bbox="true"
     inkscape:window-width="1280"
     inkscape:window-height="776"
     inkscape:window-x="0"
     inkscape:window-y="24"
     inkscape:window-maximized="1" />
  <metadata
     id="metadata7">
    <rdf:RDF>
      <cc:Work
         rdf:about="">
        <dc:format>image/svg+xml</dc:format>
        <dc:type
           rdf:resource="http://purl.org/dc/dcmitype/StillImage" />
        <dc:title></dc:title>
      </cc:Work>
    </rdf:RDF>
  </metadata>
  <g
     inkscape:label="Layer 1"
     inkscape:groupmode="layer"
     id="layer1"
     transform="translate(0,-652.36218)">
    <path
       sodipodi:type="arc"
       style="fill:#000000;fill-opacity:1;fill-rule:evenodd;stroke:#ffffff;stroke-width:1.76103867;stroke-linecap:butt;stroke-linejoin:miter;stroke-opacity:1;stroke-miterlimit:4;stroke-dasharray:none"
       id="path3050"
       sodipodi:cx="103.71859"
       sodipodi:cy="97.386932"
       sodipodi:rx="86.231155"
       sodipodi:ry="86.231155"
       d="m 189.94975,97.386932 a 86.231155,86.231155 0 1 1 -172.462316,0 86.231155,86.231155 0 1 1 172.462316,0 z"
       transform="matrix(2.2713868,0,0,2.2713868,-35.585035,631.15879)" />
    <path
       id="path3839-6"
       style="color:#000000;fill:#ffffff;fill-opacity:1;fill-rule:nonzero;stroke:#ffffff;stroke-width:4;stroke-linecap:butt;stroke-linejoin:round;stroke-miterlimit:4;stroke-opacity:1;stroke-dasharray:none;stroke-dashoffset:0;marker:none;visibility:visible;display:inline;overflow:visible;enable-background:accumulate"
       d="m 339.03993,713.91667 c 6.61075,-0.20849 8.16185,-0.46935 10.08316,-0.7036 10.35398,-1.26241 16.83002,-11.56837 22.1342,-18.15329 -2.55582,11.64432 -3.38072,15.45398 -4.25227,23.99654 1.72477,2.10222 8.66611,8.1093 13.45978,11.33158 -10.74562,-2.03836 -20.21687,-3.14243 -29.14236,-2.12383"
       inkscape:connector-curvature="0"
       sodipodi:nodetypes="cscccc" />
    <path
       id="path3839"
       style="color:#000000;fill:#ffffff;fill-opacity:1;fill-rule:nonzero;stroke:#000000;stroke-width:2;stroke-linecap:butt;stroke-linejoin:round;stroke-miterlimit:4;stroke-opacity:1;stroke-dasharray:none;stroke-dashoffset:0;marker:none;visibility:visible;display:inline;overflow:visible;enable-background:accumulate"
       d="m 99.69051,859.06072 c 0.46623,10.44396 1.59534,13.78866 4.18449,18.92646 1.674,3.32182 4.0518,6.70373 7.375,8.375 4.48241,2.25425 9.15019,1.25383 15,1.25 2.22556,-10e-4 4.36264,-1.4727 4.21825,-4.31752 -0.1444,-2.84481 -3.89238,-5.11468 -7.31114,-4.89671 -5.45295,0.34766 -9.05318,2.22511 -14.73431,-2.96023 -4.47929,-4.08838 -6.4722,-10.22088 -8.73229,-16.377 z M 65.81214,966.03647 c 3.46548,-21.68615 6.312749,-29.48237 9.408966,-32.84514 1.570214,-1.70539 -9.619845,-8.31004 -12.914084,-17.72951 -4.376483,-12.51401 1.095429,-31.13379 5.543899,-39.22192 7.37018,-13.40033 16.080402,-13.40033 16.080402,-21.44053 0,-8.04021 -16.750418,-12.06031 -19.430485,-40.20101 -2.680067,-28.1407 9.380234,-44.89112 24.120603,-59.63149 14.740369,-14.74037 36.718859,-23.54571 47.298269,-23.36933 10.57942,0.17639 31.06011,7.56228 43.03923,18.40121 1.81481,1.64207 2.26297,3.72426 3.57039,6.43062 2.10395,1.79582 7.46699,2.24734 11.5126,1.50881 4.64513,-0.84797 10.81179,-0.42255 13.66916,2.2134 1.37509,1.26853 1.62507,4.64091 0.31878,6.1802 -0.80747,0.95149 -1.86724,3.6165 -1.86724,3.6165 0,0 0.20899,4.38557 0.60552,6.54705 0.58624,3.1956 2.82277,-1.95004 5.36635,4.82298 1.36544,3.63589 2.61174,9.55604 2.57467,14.80881 -0.0335,4.74925 0.0675,6.81475 0.0675,6.81475 0,0 0.75618,2.70808 3.15826,5.48576 2.81427,3.25432 3.31329,3.44042 10.49497,5.32535 2.38414,0.62575 1.64016,4.25069 0.28616,7.46313 0,0 0.63385,4.28805 1.76139,5.63007 2.47283,2.94321 5.25473,1.51005 5.10141,8.80357 -2.79306,14.77755 -19.36774,13.91605 -25.01441,17.13957 -8.12146,5.12555 -4.17802,6.77683 -6.18807,15.48704 -2.01005,8.71022 -5.87223,11.98364 0.15792,19.35383 6.03015,7.37018 21.86217,6.97307 32.58244,7.64309 10.72026,0.67002 24.49317,2.06218 35.08925,7.09728 15.97688,7.59197 21.44054,31.49078 21.44054,31.49078 0,0 4.69011,-12.73032 8.0402,-25.46063 3.35008,-12.73032 -5.36014,-18.09046 -2.68007,-36.18091 2.68007,-18.09045 6.76267,-26.98817 6.76267,-34.35835 0,-7.37019 -0.64249,-18.993 2.03758,-19.66301 0.98635,-0.24658 0.64747,-2.52853 0.45718,-3.97136 -0.32676,-2.47759 0.1228,-4.98885 0.1228,-4.98885 l -4.69011,-18.76047 c -2.50044,-4.86998 -6.7651,-10.1921 -12.80698,-12.57699 l -5.52265,-17.96627 c 0,0 -17.85128,13.12282 -33.26166,19.82299 -15.41039,6.70017 -10.05025,2.01005 -12.0603,-2.68007 -2.01005,-4.69011 18.09045,-42.88107 40.201,-52.93132 22.11055,-10.05025 65.66164,-6.03015 71.02178,-8.71022 5.36013,-2.68007 11.57997,-5.65645 18.09045,-16.41541 -2.60728,8.92346 -4.69012,21.10553 -4.69012,21.10553 0,0 4.26228,2.83212 12.0603,8.71022 -7.56393,-2.14223 -17.42043,-4.0201 -28.1407,-2.68007 -10.72027,1.34003 -44.22111,20.77052 -44.22111,20.77052 l 8.78689,25.57564 c 0,0 -7.04019,6.65815 -3.89592,16.3671 l 5.45553,16.8457 c 7.99447,2.48069 6.80393,11.7912 8.68471,13.89642 5.64612,-0.0265 2.05675,-1.4721 8.7078,-1.44496 4.73764,0.38791 5.39738,3.35809 10.45195,5.14201 3.79679,1.34001 6.5563,1.67676 11.167,8.26359 6.25337,8.93354 2.45679,3.57338 7.59351,9.38021 4.52723,5.11783 -0.36562,3.05985 3.79669,7.81688 1.5634,1.78678 4.24349,3.35002 4.24349,8.71016 0,5.36013 4.0201,6.7002 4.0201,12.06033 0,5.36014 -5.36015,4.6901 -8.04022,12.7303 -2.68007,8.0402 -10.72027,12.0603 -13.40034,20.77052 -2.68006,8.71022 -6.70016,61.64154 -6.70016,61.64154 -1.21934,0.98495 -276.803009,1.97329 -279.42568,1.35436 z"
       inkscape:connector-curvature="0"
       sodipodi:nodetypes="csscsssccsssssssscssscssscsscsccsssscsssssccccsssscccsccscccsssssssscc" />
    <g
       id="g3968"
       transform="matrix(0.78213546,0,0,0.81480215,64.651578,140.43448)">
      <path
         sodipodi:nodetypes="sssssssss"
         inkscape:connector-curvature="0"
         id="rect3845"
         d="m 290.7677,756.27642 3.38802,10.96594 c 0.11564,0.37429 -0.0926,0.7687 -0.46686,0.88434 l -1.58337,0.48919 c -0.37428,0.11564 -0.77048,-0.092 -0.88433,-0.46687 l -3.16928,-10.43469 c -0.11384,-0.37483 0.15315,-0.64972 0.46687,-0.88433 l 1.36462,-1.02044 c 0.31372,-0.2346 0.76869,0.0926 0.88433,0.46686 z"
         style="fill:#000000;fill-opacity:1;stroke:#000000;stroke-width:1;stroke-opacity:1" />
      <path
         sodipodi:nodetypes="cscccccsc"
         id="rect3845-8"
         d="m 296.4066,752.12227 3.38802,10.96595 c 0.11564,0.37428 -0.0926,0.76869 -0.46686,0.88433 l -1.58337,0.48919 c -0.37428,0.11564 -0.76869,-0.0926 -0.88433,-0.46686 l -3.13803,-10.40345 c -0.11563,-0.37428 0.0926,-0.76869 0.46687,-0.88432 l 1.33337,-1.0517 c 0.30758,-0.2426 0.76869,0.0926 0.88433,0.46686 z"
         style="fill:#000000;fill-opacity:1;stroke:#000000;stroke-width:1;stroke-opacity:1"
         inkscape:connector-curvature="0" />
      <path
         sodipodi:nodetypes="sscccscss"
         id="rect3845-6"
         d="m 302.05745,748.46342 3.38803,10.96595 c 0.11564,0.37428 -0.0926,0.76869 -0.46687,0.88433 l -1.58337,0.48919 c -0.37428,0.11564 -0.76869,-0.0926 -0.88433,-0.46686 l -3.13802,-10.77845 c -0.1095,-0.37612 0.0926,-0.76869 0.46687,-0.88432 l 1.33337,-0.6767 c 0.34932,-0.17729 0.76869,0.0926 0.88432,0.46686 z"
         style="fill:#000000;fill-opacity:1;stroke:#000000;stroke-width:1;stroke-opacity:1"
         inkscape:connector-curvature="0" />
    </g>
  </g>
</svg>
